<svg xmlns="http://www.w3.org/2000/svg" width="160.602" height="66.339" viewBox="0 0 160.602 66.339"><defs><style>.a{fill:#1a1311;}.b{fill:#ed6b00;}</style></defs><g transform="translate(80.301 33.169)"><g transform="translate(-80.301 -33.169)"><g transform="translate(27.153)"><path class="a" d="M113.464,0l-3.373,27.925h-4.4l-1.515-14.177L102.6,27.925H98.258L95,0h4.859l1.172,14.805L102.517,0h3.344l1.572,15.12L108.605,0Z" transform="translate(-95)"/><path class="a" d="M181.075,27.867H171.3V0h9.746V3.859H176.1v7.717h4.087v3.916H176.1v8.517h4.973Z" transform="translate(-149.492)"/><path class="a" d="M228.4,27.867h-9.8V0h9.746V3.859H223.43v7.717h4.087v3.916H223.43v8.517H228.4Z" transform="translate(-183.273)"/><path class="a" d="M278.7,27.925h-5l-2.287-11.433-.686,1.8v9.632H265.9V0h4.83V8.232L273.674,0h4.6l-3.859,10.147Z" transform="translate(-217.053)"/><path class="a" d="M330.275,27.925H320.5V0h4.83V23.98H330.3Z" transform="translate(-256.048)"/><path class="a" d="M370.748,0l-4.059,17.092V27.925h-4.83V17.063L357.8,0h5.088l1.6,10.547L366.2,0Z" transform="translate(-282.686)"/></g><g transform="translate(53.591 37.557)"><path class="a" d="M203.363,161.025h-4.63V147.963l-2.058,13.062h-3L191.5,147.963v13.062h-4V133.1h5.574l2.2,16.435,2.6-16.435h5.431Z" transform="translate(-187.5 -132.614)"/><path class="a" d="M269.033,154.008c0,4.573-2.715,6.174-5.945,6.174S257,158.467,257,154.008V137.574c0-4.545,2.83-6.174,6.088-6.174s5.945,1.6,5.945,6.174Zm-4.773-17.378c0-1.086-.629-1.515-1.2-1.515s-1.229.429-1.229,1.515v18.292c0,1.058.486,1.515,1.258,1.515s1.172-.429,1.172-1.486Z" transform="translate(-237.136 -131.4)"/><path class="a" d="M324.247,161.025H320.7l-3.6-14.32v14.32h-4V133.1h4.059l3.087,12.376V133.1h4Z" transform="translate(-277.201 -132.614)"/><path class="a" d="M377.3,136.93h-3.8v24.095h-4.83V136.93H364.9V133.1h12.4Z" transform="translate(-314.195 -132.614)"/><path class="a" d="M433.447,161.025h-4.8V148.677H425.9v12.262h-4.8V133.1h4.773v11.69h2.744V133.1h4.8Z" transform="translate(-354.332 -132.614)"/><path class="a" d="M489,161.025h-9.8V133.1h4.83v23.98H489Z" transform="translate(-395.826 -132.614)"/><path class="a" d="M529.548,133.029l-4.059,17.092v10.833h-4.83v-10.89L516.6,133h5.088l1.6,10.547L525.032,133Z" transform="translate(-422.537 -132.543)"/></g><path class="b" d="M30.5,46.86c0,6.288-4.344,10.661-10.575,10.661S9.346,53.291,9.346,47.2s4.23-9.861,10.089-10.089V28.8a9.9,9.9,0,0,1-9.546-10.2c0-5.659,3.916-9.975,9.546-10.2V.1C8.346.3.629,7.846.629,18.593A18.244,18.244,0,0,0,7.06,32.312l.457.4-.486.372A17.5,17.5,0,0,0,0,47.232C0,57.664,8.746,65.81,19.95,65.81S39.9,57.836,39.9,46.86v-.486h8.2V38.086H30.5Z" transform="translate(0 -0.071)"/></g></g></svg>