<?xml version="1.0" encoding="utf-8"?>
<!-- Generator: Adobe Illustrator 26.0.1, SVG Export Plug-In . SVG Version: 6.00 Build 0)  -->
<svg version="1.1" id="レイヤー_1" xmlns="http://www.w3.org/2000/svg" xmlns:xlink="http://www.w3.org/1999/xlink" x="0px"
	 y="0px" viewBox="0 0 407 160" style="enable-background:new 0 0 407 160;" xml:space="preserve">
<style type="text/css">
	.st0{fill:#FFFFFF;}
</style>
<g>
	<path class="st0" d="M106.3,32.1c1.3-1.5,1.9-3.9,1.9-7c0-4.3-2.9-7.2-8.8-8.7c-11.1-2.6-22.4-3.8-33.8-3.7
		c-43.4,0-65.1,12.4-65.1,37.1c-0.1,5.8,1.4,11.5,4.3,16.5c1.6,2.7,4.5,4.3,7.6,4.2c2.6,0,5.2-0.9,7.2-2.5c2.2-1.7,3.3-3.6,3.3-5.8
		c0-1.1-0.3-2.3-0.9-3.2c-1.9-3-3-6.5-3.1-10c0-6.3,3.4-10.8,10.2-13.6c6.8-2.8,17.4-4.2,31.8-4.2c5.4,0,11.2,0.3,17.4,0.9
		l-2.8,23.3c-0.6,5.8-1.5,12.3-2.6,19.6C54.7,81.7,40,90,28.8,100c-11.2,10-16.7,21.6-16.7,34.7c-0.2,6.8,2.4,13.4,7.2,18.2
		c4.8,4.8,11.5,7.3,20.1,7.3c29.1,0,48.3-34.2,57.5-102.5c0.1-0.8,0.7-4.8,1.7-12.1c0.7-5.4,1.2-9.1,1.4-11.3
		C102.9,34.4,105,33.6,106.3,32.1z M56.6,132.2c-5.1,7.6-10.1,11.4-15.2,11.4c-2.6,0.1-5.1-0.9-6.8-2.9c-1.7-1.9-2.5-4.6-2.5-8.1
		c0-16,12.6-29.5,37.8-40.5C66.1,111.3,61.7,124.6,56.6,132.2z"/>
	<path class="st0" d="M386,118.3c4.9,0,9.6-1.7,13.3-4.8c2.2-1.8,3.5-4.6,3.4-7.5c0-1.3-0.3-2.5-0.8-3.7c-0.4-0.9-1.2-1.5-2.2-1.5
		c-0.9,0-1.8,0.4-2.5,1.1c-1.3,1.2-2.8,2.2-4.4,2.9c-1.3,0.7-2.8,1.1-4.3,1.1c-2,0.1-4-0.6-5.5-2c-1.4-1.3-2.3-3.6-2.8-6.6
		c8.1-10.8,14.8-22.4,20.1-34.8c4.9-11.8,7.4-22.1,7.4-31c0-6.2-1-11-3.1-14.3c-2.1-3.3-4.9-5-8.5-5c-6.4,0-11.9,4.2-16.5,12.6
		c-4.6,8.4-8.1,18.4-10.5,30.1c-2.2,10.3-3.4,20.7-3.5,31.2c0,3.6,0.2,6.9,0.7,9.9c-2.1,2.5-4.4,4.9-6.8,7.2c-2,1.8-3.8,2.8-5.2,2.8
		c-0.9,0-1.7-0.4-2.2-1c-0.6-0.8-0.9-1.7-0.8-2.7c0-3.4,0.9-9.4,2.6-18c0.8-3.7,1.4-7.5,1.7-11.2c0-2.6-1.8-3.9-5.5-3.9
		c-1.7,0-3.3,0.1-5,0.4c-0.2-1.2-0.7-2.4-1.4-3.4c-0.6-0.6-1.7-1-3.3-1c-5.3,0-10.4,1.7-14.7,4.9c-4.7,3.3-8.5,7.8-11.1,12.9
		c-2.6,5-4,10.6-4.1,16.3c-1.3,1.3-2.6,2.7-3.9,3.9c-2.1,1.8-3.8,2.8-5.3,2.8c-2.2,0-3.3-1.5-3.3-4.5c0-2.1,0.7-6.4,2.1-12.9
		c1.7-7.6,2.5-12.9,2.5-15.8c0-4.9-2.4-7.3-7.3-7.3c-2.9,0.1-5.7,1-8.2,2.6c-3.6,2.3-6.6,5.2-9.1,8.6c-3.5,4.8-6.3,10.1-8.3,15.7
		c0.2-2.8,0.6-5.6,1.1-8.3c0.4-2.2,1-4.9,1.8-7.9c0.8-2.6,1.4-5.3,1.7-8.1c0.1-0.8-0.2-1.6-0.9-2.1c-1-0.5-2.1-0.6-3.2-0.6
		c-2.3-0.1-4.5,0.4-6.5,1.5c-1.6,1.1-2.8,2.8-3.3,4.8c-1.6,5.1-2.7,10.3-3.4,15.6c-1.9,1.4-3.5,2.1-4.8,2.1c-1.9,0-2.8-1.3-2.8-3.9
		c0.2-1.9,0.5-3.8,0.9-5.6c0.5-2.3,0.8-4.7,1-7.1c0-4.9-2.4-7.3-7.3-7.3c-2.9,0.1-5.7,1-8.2,2.6c-3.6,2.3-6.6,5.2-9.1,8.6
		c-3.5,4.8-6.3,10.1-8.3,15.7c0.2-2.8,0.6-5.6,1.1-8.3c0.4-2.2,1-4.9,1.8-7.9c0.8-2.6,1.4-5.3,1.7-8.1c0.1-0.8-0.2-1.6-0.9-2.1
		c-1-0.5-2.1-0.6-3.2-0.6c-2.3-0.1-4.5,0.4-6.5,1.5c-1.6,1.1-2.8,2.8-3.3,4.8c-2.6,8.3-4,17-4.1,25.7c-1.8,2-3.6,3.9-5.6,5.8
		c-2.1,1.8-3.8,2.8-5.3,2.8c-0.9,0-1.8-0.4-2.4-1.2c-0.7-1-1-2.1-0.9-3.3c0-2.2,1.1-8.2,3.2-17.7c1.9-8.4,2.8-13.5,2.8-15.4
		c0.1-0.9-0.3-1.8-1-2.3c-1.1-0.5-2.4-0.7-3.6-0.6c-2-0.1-3.9,0.4-5.6,1.5c-1.4,1.3-2.4,3-2.8,4.8c-1.5,5.7-3.4,11.4-5.6,16.8
		c-1.4,3.6-3.2,7-5.4,10.2c-1.7,2.2-3.1,3.4-4.2,3.4c-0.7,0-1.4-0.3-1.8-1c-0.5-1-0.6-2.2-0.6-3.3c0-2.6,0.7-7.9,2.3-15.7
		c0.4-2.2,1-4.8,1.8-7.5c0.5-2,1-4,1.2-6.1c0.1-0.9-0.3-1.8-1-2.4c-1-0.6-2.2-0.9-3.4-0.8c-2.9,0-5.1,0.5-6.4,1.5
		c-1.5,1.2-2.6,2.9-3.2,4.8c-1.4,4.1-2.5,8.4-3.3,12.7c-3,0.7-6,1.1-9.1,1.4c-0.4-5.4-2.6-10.5-6.1-14.5c-3.5-3.9-8.5-6.1-13.8-5.9
		c-4.5,0-9,1.3-12.7,3.8c-3.9,2.6-7,6.2-9,10.4c-2.2,4.8-3.4,10-3.3,15.2c0,4,0.8,8,2.5,11.7c1.6,3.5,4.1,6.5,7.3,8.6
		c3.4,2.2,7.5,3.4,11.5,3.3c5.3,0,10.4-2,14.3-5.7c4.3-4,7.3-9.3,8.4-15.1c2.9-0.1,5.8-0.4,8.6-1c-0.1,1.8-0.1,3.7-0.1,5.5
		c-0.2,4.1,1,8.2,3.2,11.6c2.1,3.1,4.9,4.7,8.3,4.7c2.9,0,5.7-1.4,8.2-4.1s4.5-6.6,5.7-11.7c0,5,0.8,8.9,2.5,11.7
		c1.7,2.8,4.3,4.2,7.9,4.2c4.5,0.1,8.9-1.3,12.7-3.8c1.6-1.1,3.1-2.3,4.6-3.6c0.2,1.1,0.5,2.1,0.8,3c1.2,3,3.2,4.5,6,4.5
		c2.3,0,4-0.6,5.1-1.9s2-3.6,2.9-7.1c1.1-4.5,2.6-8.8,4.4-13c1.5-3.5,3.3-6.8,5.5-9.9c1.8-2.5,3.3-3.8,4.4-3.8
		c0.8,0,1.2,0.6,1.2,1.8c0,0.5-0.1,1.5-0.2,3c-0.2,1.1-0.3,2.2-0.3,3.4c-0.2,3,1,6,3.1,8.2c2.1,2,5.1,3,9.1,3c2.9,0,5.8-0.7,8.3-2
		c0,6.3,0.6,10.9,1.7,13.8c1.2,3,3.2,4.5,6,4.5c2.3,0,4-0.6,5.1-1.9c1.1-1.2,2-3.6,2.9-7.1c1.1-4.5,2.6-8.8,4.4-13
		c1.5-3.5,3.3-6.8,5.4-9.9c1.8-2.5,3.1-3.8,4.1-3.8c0.8,0,1.2,0.6,1.2,1.8c-0.2,3.3-0.7,6.6-1.5,9.8c-0.8,3.7-1.4,7.4-1.6,11.2
		c0,4.2,1,7.4,2.9,9.6c2,2.2,4.8,3.3,8.7,3.3c4.5,0.1,8.9-1.3,12.7-3.8c1.6-1.1,3.1-2.3,4.5-3.6c0.5,0.8,1,1.6,1.6,2.4
		c2.7,3.3,6.8,5.2,11.1,5.1c5.9,0,10.8-3.1,14.7-9.4c0.9,2.7,2.5,5.1,4.7,6.9c1.9,1.6,4.3,2.5,6.8,2.5c3.2,0,6.6-1.3,10-3.9
		c2.7-2.1,5.3-4.4,7.5-7c0.3,0.7,0.6,1.4,1,2C373.6,115.3,378.8,118.3,386,118.3z M128.6,103.4c-1.6,1.8-3.8,2.9-6.3,2.9
		c-2.2,0-4.1-1.1-5.7-3.3s-2.4-5.3-2.4-9.4c0-5.2,1-9.3,3-12.2s4.5-4.3,7.5-4.3h0.6c-0.2,1.2-0.3,2.4-0.3,3.6c0,2.8,0.6,5.6,1.9,8.1
		c1.2,2.5,3,4.6,5.3,6.2C131.5,98.7,130.3,101.5,128.6,103.4z M337.6,96.3c-0.5,2.8-1.6,5.4-3.3,7.7c-1.5,1.9-3.1,2.9-4.7,2.9
		c-1.5,0.1-2.9-0.5-3.9-1.7c-1.1-1.5-1.6-3.3-1.4-5.2c0-4.1,0.8-8.1,2.4-11.9c1.4-3.5,3.6-6.6,6.4-9c2.4-2.2,5.5-3.4,8.7-3.5
		L337.6,96.3z M381.8,55.7c1.3-7.8,3.2-15.6,5.7-23.1c2.2-6.2,4.1-9.3,5.9-9.3c2.1,0,3.2,2.8,3.2,8.5c0,7.3-1.6,15.3-4.7,24.1
		c-3.3,9.2-7.6,18-12.7,26.3C379.3,73.3,380.2,64.5,381.8,55.7z"/>
	<path class="st0" d="M184.6,22.1c0.6,0,1.2-0.2,1.8-0.5l6.5-4c-2.1,5-3.2,10.3-3.3,15.7c0,9,2.9,13.6,8.6,13.6h0.2
		c2.8-0.1,5.5-1.4,8.2-3.9c3-2.9,5.6-6.2,7.6-9.9c0.1,3.2,0.7,6.4,1.9,9.3c0.5,1.3,1.3,2.4,2.3,3.2c1.1,0.8,2.4,1.2,3.8,1.2
		c1.8-0.1,3.5-0.6,5-1.6c2-1.2,3.8-2.7,5.3-4.5c3.2-4,6.1-8.3,8.6-12.8c1.7-3.1,3.1-6.3,4.2-9.7c3.5-0.7,6.8-2.1,9.7-4
		c-0.6,1.1-0.9,2.3-0.9,3.6c0,2.3,0.9,5.1,2.7,8.4c-4.2,2.3-6.9,4.5-7.9,6.6c-0.5,1.1-0.8,2.3-0.8,3.5c-0.2,2.3,0.8,4.5,2.7,5.9
		c2.2,1.4,4.7,2.1,7.3,1.9c3.1,0,6.2-0.9,8.8-2.7c1.2,2,2.6,3.8,4.4,5.3c1.2,1,2.7,1.4,4.2,1.3c1.3,0,2.5-0.2,3.6-0.8
		c0.7-0.4,1.2-0.8,1.4-1.2c1,0.5,2.2,0.7,3.4,0.7c1,0.1,1.9-0.5,2.4-1.4c0.4-1,0.8-2,1-3c3.9-11.9,7-20.2,9.3-24.7s4.9-6.8,7.8-6.8
		c2.1,0,3.2,1.3,3.2,4c-0.1,1.8-0.4,3.6-0.9,5.4l-7.2,24.4c1.1,1,2.6,1.5,4.1,1.6c0.7,0.1,1.5-0.3,1.9-0.9c0.3-0.6,0.6-1,0.7-1.3
		c0.2-0.5,0.4-1,0.5-1.6c0.2-0.8,1.3-3.9,3.3-9.5c2-5.5,3.5-9.6,4.6-12.1c3.1-7.2,5.9-11.1,8.5-11.6c0.3,0,0.6-0.1,0.8-0.1
		c1.7,0,2.5,1.1,2.5,3.4c0,1.8-0.6,4.8-1.9,9l-4.2,14.2c-0.6,2-0.9,4-1,6.1c0,1.9,0.7,3.7,2.1,4.9c1.4,1.3,3.5,2,6.5,2
		c3,0,5.8-1.4,7.7-3.7c0.5-0.5,0.8-1.1,0.8-1.8c0-0.6-0.2-1.2-0.7-1.7c-0.4-0.4-1-0.7-1.5-0.7c-0.5,0-1,0.2-1.4,0.6
		c-1.1,1.3-2.7,2.1-4.4,2.1c-0.9,0-1.7-0.3-2.4-0.8c-0.6-0.5-0.9-1.2-0.9-2c0-0.8,0.1-1.6,0.3-2.4l4.5-15.4c1.2-3.8,2-7.8,2.4-11.8
		v-0.7c0-1.6-0.4-3.1-1.2-4.5c-0.9-1.8-2.7-2.7-5.3-2.7c-3.2,0-6.2,1.5-8.1,4.1c-2.8,3.6-5,7.5-6.5,11.8c0.8-2.7,1.3-5.5,1.4-8.4
		c0-4.5-1.8-6.8-5.4-6.8h-0.6c-3,0.3-5.7,1.6-7.9,3.7c-2.5,2.3-5,6.3-7.5,12.2c1.5-5.1,2.2-8.7,2.2-10.8c0-3.6-2-5.4-6-5.4
		c-2.6,0.1-5.1,1-7.1,2.7c-2.3,1.5-3.8,3.9-4.3,6.6c0.2,1.1,0.8,2.2,1.8,2.8c0.6,0.7,1.4,1.2,2.3,1.5c2.5-5.5,4.8-8.3,6.7-8.3
		c0.8,0,1.3,0.8,1.3,2.4c0,2.5-0.9,6.8-2.7,12.8l-6,20c-0.6-0.4-1.2-0.7-1.9-1c-0.8-0.3-1.5-0.7-2.2-1.2c-0.5-0.4-1.7-1.5-3.5-3.2
		c1.7-0.9,3.3-2,4.7-3.3c1.1-1,1.7-2.5,1.7-4c0-0.7-0.3-1.4-0.9-1.8c-0.6-0.4-1.3-0.7-2-0.7c-0.7,0-1.1,0.3-1.1,0.8
		c-0.2,1.7-1.8,3.6-4.8,5.7c-2.2-3.1-4.2-6.4-5.9-9.7c2-1.1,3.8-2.6,5.3-4.2c1.3-1.5,2-3.4,2-5.4c0.1-1.9-0.6-3.7-2-4.9
		c-1.5-1.2-3.5-1.9-5.5-1.8c-2.3,0-4.5,0.9-6.1,2.6c-0.2,0.1-0.3,0.3-0.5,0.5c0,0,0-0.1,0-0.1c0-0.6-0.2-1.3-0.6-1.8
		c-0.4-0.4-0.9-0.6-1.5-0.6c-0.5,0-1.1,0.1-1.5,0.5c-0.4,0.3-0.8,0.5-1,0.7s-0.5,0.3-0.7,0.5c-0.2,0.1-0.5,0.3-0.7,0.4
		s-0.4,0.3-0.7,0.4s-0.4,0.2-0.7,0.3c-0.2,0.1-0.4,0.2-0.6,0.3c-0.2,0.1-0.4,0.2-0.6,0.3c-0.4,0.2-0.8,0.3-1.1,0.4
		c0.3-1.6,0.5-3.3,0.5-5c0.1-1.4-0.3-2.8-1.1-4c-0.8-1.1-1.8-2-3-2.8c-0.9-0.6-1.8-1.3-2.4-2.1c-2.9,0-5.2,0.8-6.8,2.4
		c-1.5,1.5-2.4,3.6-2.4,5.8c0,4.7,3.1,8.9,7.7,10.2c-1.8,4.8-4.2,9.5-7,13.8c-1.4,2.1-3,4.1-4.8,6c-1.8,1.9-3.4,2.9-4.7,3.1h-0.2
		c-1.6,0-2.4-2.2-2.4-6.7v-1.2l0.1-1.4c-0.1-4.2,0.6-8.4,2.2-12.2c0.7-1.3,1.1-2.7,1.3-4.2c0-0.8-0.2-1.6-0.7-2.3
		c-0.4-0.5-1-0.8-1.6-0.8h-0.4c-0.9-0.1-1.8,0.2-2.4,0.9c-0.4,0.6-0.8,1.2-1.1,1.9c-0.7,1.5-1.2,3-1.6,4.6c-0.4,1-0.9,2-1.4,3
		c-0.5,0.9-0.9,1.6-1.1,2.2c-1.8,4.3-4.3,8.3-7.4,11.8c-2.6,2.8-4.9,4.3-6.7,4.5h-0.2c-1.8,0-2.7-2.2-2.7-6.5
		c0.1-6.3,1.5-12.5,4.2-18.3c0.7-1.8,1.5-3.5,2.6-5.1c0.2-0.3,0.3-0.7,0.2-1c-0.1-0.6-0.4-1.2-0.9-1.6c-0.5-0.5-1.1-0.8-1.8-0.9
		c-1.1,0-2.1,0.4-2.9,1.1L184,17c-0.8,0.4-1.4,1.2-1.4,2.2c0,0.8,0.2,1.5,0.6,2.1C183.5,21.8,184.1,22,184.6,22.1z M260.5,17.8
		c0-2.3,1-3.5,3.1-3.5c1.7,0,2.6,0.6,2.6,1.9c0.1,1-0.2,2-0.7,2.9c-0.5,0.7-0.8,1.2-1,1.4c-0.7,0.9-1.5,1.7-2.3,2.5
		C261.2,21.4,260.7,19.6,260.5,17.8L260.5,17.8z M258.1,28.6c1.8,3.3,3.9,6.4,6.2,9.4c-1.4,1.1-3.1,1.7-4.9,1.7
		c-3.5,0-5.3-1.3-5.3-4C254.1,33,255.4,30.6,258.1,28.6z M237.3,7.8c0-0.9,0.3-1.7,0.8-2.5c0.4-0.7,1.2-1.2,2-1.2c1,0,1.6,1,1.6,2.9
		c-0.1,2.3-0.4,4.6-1.1,6.8C238.4,12.8,237.3,10.8,237.3,7.8z"/>
	<path class="st0" d="M122.6,138.8H120v-1.2c0-0.6,0.1-1.2,0.1-1.8h-3.3c0.1,0.6,0.2,1.2,0.2,1.8v1.2h-3.7c-0.6,0-1.3,0-1.9-0.1
		c0.1,0.5,0.1,1.1,0.1,1.6v3c0,0.5,0,1.2-0.1,1.7h2.9c-0.1-0.5-0.1-1-0.1-1.4v-2.3h8.1c-0.2,1.5-0.7,2.9-1.5,4.2
		c-0.9,1.2-2.2,2.1-3.6,2.7c-0.9,0.4-1.9,0.6-2.9,0.8l2.2,2.6c3.1-0.7,5.8-2.7,7.3-5.5c0.8-1.5,1.3-3.1,1.6-4.8
		c0.1-0.5,0.2-1.1,0.4-1.6l-1.9-1.1C123.6,138.7,123.1,138.8,122.6,138.8z"/>
	<path class="st0" d="M141.7,140.8l-2.1-2.1c-1.3,1.5-2.8,2.8-4.5,3.9c-2,1.1-4.1,1.9-6.3,2.4l1.3,2.5c1.6-0.5,3.3-1.2,4.8-1.9v4.2
		c0,0.7,0,1.7-0.1,2.1h3.2c-0.1-0.7-0.2-1.4-0.1-2.1V144C139.2,143.1,140.5,142,141.7,140.8z"/>
	<path class="st0" d="M149,142c-0.9,0-2.3-0.1-3.1-0.1v3.4c0.7-0.1,2-0.1,3.1-0.1h9.4c0.7,0,1.7,0.1,2.2,0.1v-3.4
		c-0.5,0-1.4,0.1-2.2,0.1H149z"/>
	<path class="st0" d="M174,138.3h-2.8c0.3-0.5,0.7-1.2,1.1-1.7l-3.1-1c-0.2,0.7-0.5,1.4-0.9,2.1c-1.3,2.3-3.2,4.1-5.5,5.5l2.4,1.8
		c1.7-1.2,3.2-2.6,4.4-4.2h4.4c-0.4,1.6-1.2,3.1-2.3,4.4c-1.9,2.1-4.4,3.6-7.1,4.3l2.5,2.3c2.8-1,5.3-2.8,7.2-5.1
		c1.4-1.7,2.4-3.7,3-5.8c0.2-0.5,0.4-1,0.7-1.4l-2.2-1.3C175.2,138.3,174.6,138.3,174,138.3z"/>
	<path class="st0" d="M182.3,145.7h3.1c0-0.5-0.1-1.2-0.1-1.6v-6c0-0.6,0-1,0.1-1.4h-3.1c0.1,0.4,0.1,1.1,0.1,1.4v6
		C182.4,144.6,182.3,145.3,182.3,145.7z"/>
	<path class="st0" d="M190.5,138.4v3.6c0,2.4-0.2,3.7-1.4,4.9c-1.2,1.1-2.7,1.9-4.3,2.1l2.2,2.4c1.6-0.5,3.1-1.4,4.3-2.5
		c1.3-1.4,2.2-3.2,2.2-6.7v-3.8h0c0-0.8,0-1.4,0.1-1.9h-3.2C190.4,137.1,190.5,137.8,190.5,138.4z"/>
	<path class="st0" d="M201.1,142c-0.9,0-2.3-0.1-3.1-0.1v3.4c0.7-0.1,2-0.1,3.1-0.1h9.4c0.7,0,1.7,0.1,2.2,0.1v-3.4
		c-0.5,0-1.4,0.1-2.2,0.1H201.1z"/>
	<path class="st0" d="M228.6,142.9h-2.8c-0.1,0.9-0.4,1.7-0.8,2.5c-0.8-0.6-1.6-1.2-2.3-1.8c1.3-0.8,2.4-1.8,2.4-3.5
		c0-2-1.4-3.1-3.5-3.1c-0.1,0-0.2,0-0.3,0c-1.8,0.1-3.3,1.6-3.2,3.5c0,1.1,0.4,2.1,1.1,2.9c-1.3,0.8-2.5,1.9-2.5,3.6
		c0,2.1,1.5,3.7,4.7,3.7c1.5,0.1,3-0.5,4.1-1.5c0.8,0.5,1.6,1,2.4,1.5l1.4-2.4c-0.7-0.4-1.4-0.8-2.1-1.2
		C227.9,145.6,228.4,144.3,228.6,142.9z M221.8,139c0.1,0,0.1,0,0.2,0c0.6,0.1,1,0.6,0.9,1.1c0,0.8-0.6,1.4-1.5,1.9
		c-0.4-0.5-0.7-1.1-0.8-1.7C220.6,139.4,221.1,139,221.8,139z M221.7,148.2c-1.3,0-2.2-0.4-2.2-1.4c0.1-0.8,0.5-1.4,1.1-1.8
		c0.8,0.8,1.8,1.7,2.8,2.5C223,147.9,222.4,148.2,221.7,148.2z"/>
	<path class="st0" d="M244.2,137.8h-9.4c-0.7,0-1.5-0.1-2.2-0.2v3c0.7-0.1,1.4-0.1,2.2-0.2h8.7c-1,1.7-2.4,3.2-3.9,4.5
		c-1-0.9-2.1-1.7-2.8-2.3l-2.3,1.8c1.3,1,2.6,2.1,3.8,3.3c1.2,1.2,2.4,2.6,3.5,3.9l2.5-2c-0.7-0.8-1.6-1.9-2.6-2.8
		c2.2-2,4.2-4.2,5.8-6.7c0.2-0.3,0.4-0.6,0.7-0.8l-2.1-1.7C245.5,137.7,244.8,137.8,244.2,137.8z"/>
	<path class="st0" d="M256.9,146.2c-2,1.1-4.3,1.9-6.6,2.1l1.8,2.8c2.2-0.4,4.4-1.2,6.3-2.3c2.8-1.6,5.2-3.9,6.9-6.7l-1.7-3
		C262.1,142.1,259.8,144.6,256.9,146.2z"/>
	<path class="st0" d="M257.5,140.5c-1.4-1.4-3-2.7-4.6-3.8l-2,2.2c1.6,1.2,3.1,2.5,4.4,3.9L257.5,140.5L257.5,140.5z"/>
	<path class="st0" d="M277.6,144.3c1-1.5,1.9-3,2.7-4.6c0.2-0.4,0.5-0.9,0.7-1.3l-1.7-1.3c-0.7,0.2-1.4,0.3-2.1,0.3h-5.9
		c-0.8,0-1.5-0.1-2.3-0.1v3c0.5,0,1.5-0.1,2.3-0.1h5.5c-0.6,1.5-1.4,2.8-2.5,4c-2,2.2-4.5,3.9-7.2,4.9l2.2,2.3
		c2.4-1.2,4.6-2.8,6.5-4.8c1.5,1.5,3,3.1,4.2,4.8l2.4-2.1C280.9,147.4,279.3,145.8,277.6,144.3z"/>
	<path class="st0" d="M286.4,145.7h3.1c0-0.5-0.1-1.2-0.1-1.6v-6c0-0.6,0-1,0.1-1.4h-3.1c0,0.5,0.1,0.9,0.1,1.4v6
		C286.5,144.6,286.4,145.3,286.4,145.7z"/>
	<path class="st0" d="M294.6,138.4v3.6c0,2.4-0.2,3.7-1.4,4.9c-1.2,1.1-2.7,1.9-4.3,2.1l2.2,2.4c1.6-0.5,3.1-1.4,4.3-2.5
		c1.3-1.4,2.2-3.2,2.2-6.7v-3.8c0-0.8,0-1.4,0.1-1.9h-3.2C294.5,137.1,294.6,137.8,294.6,138.4z"/>
	<path class="st0" d="M305.2,142c-0.9,0-2.3-0.1-3.1-0.1v3.4c0.7-0.1,2-0.1,3.1-0.1h9.4c0.7,0,1.7,0.1,2.2,0.1v-3.4
		c-0.5,0-1.4,0.1-2.2,0.1H305.2z"/>
	<polygon class="st0" points="332.5,139.3 332.5,139.3 332.5,139.3 	"/>
	<path class="st0" d="M327.4,138.8L327.4,138.8c-1-0.7-2.9-1.9-4.1-2.5l-1.6,2.4c1.2,0.7,3,1.8,4.1,2.5L327.4,138.8z"/>
	<path class="st0" d="M325.7,146.7L325.7,146.7c-1.9,1-3.9,1.6-6,1.9l1.6,2.8c5.3-1.1,9.9-4.1,13-8.5l-1.6-2.9
		C331,142.9,328.6,145.2,325.7,146.7z"/>
	<path class="st0" d="M331.7,136.5c0.6,0.8,1.2,1.7,1.6,2.7l1.8-0.8c-0.5-0.9-1-1.8-1.6-2.6L331.7,136.5z"/>
	<path class="st0" d="M332.5,139.3c-0.5-0.9-1-1.8-1.6-2.7l-1.8,0.7c0.6,0.9,1.1,1.8,1.5,2.8L332.5,139.3z"/>
	<path class="st0" d="M318.9,142.6c1.3,0.7,3,1.8,4.1,2.6l1.6-2.4c-1-0.7-2.9-1.9-4.1-2.5L318.9,142.6z"/>
	<polygon class="st0" points="335.1,138.4 335.1,138.4 335.1,138.4 	"/>
	<path class="st0" d="M348.3,140.9c-0.7,0.2-2.9,0.6-5,1c-0.2-0.6-0.3-1.1-0.4-1.5c-0.1-0.5-0.2-1-0.3-1.4l-2.9,0.7
		c0.2,0.4,0.4,0.9,0.5,1.4c0.1,0.4,0.3,0.9,0.4,1.4c-0.7,0.1-1.2,0.2-1.4,0.2c-0.6,0.1-1.1,0.2-1.7,0.2l0.7,2.5
		c0.6-0.1,1.8-0.4,3.1-0.7c0.6,2.3,1.3,4.9,1.6,5.9c0.2,0.6,0.3,1.1,0.4,1.7l2.9-0.7c-0.1-0.4-0.4-1.3-0.5-1.6c-0.3-1-1-3.5-1.6-5.9
		c1.6-0.3,3-0.6,3.4-0.7c-0.7,1.1-1.5,2-2.4,2.9l2.3,1.2c1.5-1.8,2.7-3.7,3.8-5.7l-1.7-1.2C348.9,140.8,348.6,140.9,348.3,140.9z"/>
	<path class="st0" d="M357.2,142c-0.9,0-2.3-0.1-3.1-0.1v3.4c0.7-0.1,2-0.1,3.1-0.1h9.4c0.7,0,1.7,0.1,2.2,0.1v-3.4
		c-0.5,0-1.4,0.1-2.2,0.1H357.2z"/>
	<path class="st0" d="M380.8,140.2v-1.7c0-0.8,0-1.5,0.2-2.3h-3.4c0.2,0.7,0.3,1.5,0.3,2.2v1.7h-4.2c-0.7,0-1.4-0.1-2.2-0.1v3
		c0.7-0.1,1.4-0.1,2.2-0.1h4.1c-0.1,3-2,5.6-4.8,6.7l2.7,2c3.2-1.7,5.1-5,5.1-8.6h3.6c0.8,0,1.7,0.1,2.2,0.1v-2.9
		c-0.7,0.1-1.4,0.1-2.2,0.1H380.8z"/>
	<path class="st0" d="M399.1,147v-8.7c0-0.6,0.1-1.1,0.1-1.7H396c0.1,0.5,0.2,1.1,0.2,1.6v10.1h0c0,0.5-0.1,1-0.2,1.5l1.8,1.5
		c0.3-0.2,0.5-0.4,0.8-0.6c2.3-1.2,4.3-2.8,6-4.8l-1.6-2.4C402,145.1,400.6,146.3,399.1,147z"/>
	<path class="st0" d="M391.1,136.7c0.1,0.6,0.2,1.2,0.2,1.8c0,2.2,0,5.4-0.5,6.9c-0.5,1.7-1.6,3.1-3,4.2l2.6,1.7
		c1.5-1.4,2.6-3.2,3.2-5.2c0.4-2.5,0.6-5.1,0.5-7.6c0-0.6,0.1-1.2,0.1-1.8H391.1z"/>
</g>
</svg>
